HIERARCHY
ROOT hip
{
  OFFSET 0 0 0
  CHANNELS 6 Xposition Yposition Zposition Zrotation Yrotation Xrotation
  JOINT abdomen
  {
    OFFSET 0 20.6881 -0.73152
    CHANNELS 3 Zrotation Xrotation Yrotation
    JOINT chest
    {
      OFFSET 0 11.7043 -0.48768
      CHANNELS 3 Zrotation Xrotation Yrotation
      JOINT neck
      {
        OFFSET 0 22.1894 -2.19456
        CHANNELS 3 Zrotation Xrotation Yrotation
        JOINT head
        {
          OFFSET -0.24384 7.07133 1.2192
          CHANNELS 3 Zrotation Xrotation Yrotation
          JOINT leftEye
          {
            OFFSET 4.14528 8.04674 8.04672
            CHANNELS 3 Zrotation Xrotation Yrotation
            End Site
            {
              OFFSET 1 0 0
            }
          }
          JOINT rightEye
          {
            OFFSET -3.6576 8.04674 8.04672
            CHANNELS 3 Zrotation Xrotation Yrotation
            End Site
            {
              OFFSET 1 0 0
            }
          }
        }
      }
      JOINT rCollar
      {
        OFFSET -2.68224 19.2634 -4.8768
        CHANNELS 3 Zrotation Xrotation Yrotation
        JOINT rShldr
        {
          OFFSET -8.77824 -1.95073 1.46304
          CHANNELS 3 Zrotation Xrotation Yrotation
          JOINT rForeArm
          {
            OFFSET -28.1742 -1.7115 0.48768
            CHANNELS 3 Zrotation Xrotation Yrotation
            JOINT rHand
            {
              OFFSET -22.5879 0.773209 7.07136
              CHANNELS 3 Zrotation Xrotation Yrotation
              JOINT rThumb1
              {
                OFFSET -1.2192 -0.487915 3.41376
                CHANNELS 3 Zrotation Xrotation Yrotation
                JOINT rThumb2
                {
                  OFFSET -3.37035 -0.52449 3.41376
                  CHANNELS 3 Zrotation Xrotation Yrotation
                  End Site
                  {
                    OFFSET -1.78271 -1.18214 1.43049
                  }
                }
              }
              JOINT rIndex1
              {
                OFFSET -7.75947 0.938293 5.60832
                CHANNELS 3 Zrotation Xrotation Yrotation
                JOINT rIndex2
                {
                  OFFSET -2.54057 -0.884171 1.56538
                  CHANNELS 3 Zrotation Xrotation Yrotation
                  End Site
                  {
                    OFFSET -1.62519 -0.234802 1.16502
                  }
                }
              }
              JOINT rMid1
              {
                OFFSET -8.24714 1.18213 3.41376
                CHANNELS 3 Zrotation Xrotation Yrotation
                JOINT rMid2
                {
                  OFFSET -3.10165 -0.590103 1.0647
                  CHANNELS 3 Zrotation Xrotation Yrotation
                  End Site
                  {
                    OFFSET -2.48547 -0.328903 0.83742
                  }
                }
              }
              JOINT rRing1
              {
                OFFSET -8.82822 0.546677 1.51678
                CHANNELS 3 Zrotation Xrotation Yrotation
                JOINT rRing2
                {
                  OFFSET -2.60934 -0.819778 -0.0198488
                  CHANNELS 3 Zrotation Xrotation Yrotation
                  End Site
                  {
                    OFFSET -2.33842 -0.294052 0.168128
                  }
                }
              }
              JOINT rPinky1
              {
                OFFSET -8.27202 -0.0477905 -0.4584
                CHANNELS 3 Zrotation Xrotation Yrotation
                JOINT rPinky2
                {
                  OFFSET -1.82734 -0.647385 -0.700984
                  CHANNELS 3 Zrotation Xrotation Yrotation
                  End Site
                  {
                    OFFSET -1.69225 -0.51767 -0.607171
                  }
                }
              }
            }
          }
        }
      }
      JOINT lCollar
      {
        OFFSET 2.68224 19.2634 -4.8768
        CHANNELS 3 Zrotation Xrotation Yrotation
        JOINT lShldr
        {
          OFFSET 8.77824 -1.95073 1.46304
          CHANNELS 3 Zrotation Xrotation Yrotation
          JOINT lForeArm
          {
            OFFSET 28.1742 -1.7115 0.48768
            CHANNELS 3 Zrotation Xrotation Yrotation
            JOINT lHand
            {
              OFFSET 22.5879 0.773209 7.07136
              CHANNELS 3 Zrotation Xrotation Yrotation
              JOINT lThumb1
              {
                OFFSET 1.2192 -0.487915 3.41376
                CHANNELS 3 Zrotation Xrotation Yrotation
                JOINT lThumb2
                {
                  OFFSET 3.37035 -0.52449 3.41376
                  CHANNELS 3 Zrotation Xrotation Yrotation
                  End Site
                  {
                    OFFSET 1.78271 -1.18214 1.43049
                  }
                }
              }
              JOINT lIndex1
              {
                OFFSET 7.75947 0.938293 5.60832
                CHANNELS 3 Zrotation Xrotation Yrotation
                JOINT lIndex2
                {
                  OFFSET 2.54057 -0.884171 1.56538
                  CHANNELS 3 Zrotation Xrotation Yrotation
                  End Site
                  {
                    OFFSET 1.62519 -0.234802 1.16502
                  }
                }
              }
              JOINT lMid1
              {
                OFFSET 8.24714 1.18213 3.41376
                CHANNELS 3 Zrotation Xrotation Yrotation
                JOINT lMid2
                {
                  OFFSET 3.10165 -0.590103 1.0647
                  CHANNELS 3 Zrotation Xrotation Yrotation
                  End Site
                  {
                    OFFSET 2.48547 -0.328903 0.83742
                  }
                }
              }
              JOINT lRing1
              {
                OFFSET 8.82822 0.546677 1.51678
                CHANNELS 3 Zrotation Xrotation Yrotation
                JOINT lRing2
                {
                  OFFSET 2.60934 -0.819778 -0.0198488
                  CHANNELS 3 Zrotation Xrotation Yrotation
                  End Site
                  {
                    OFFSET 2.33842 -0.294052 0.168128
                  }
                }
              }
              JOINT lPinky1
              {
                OFFSET 8.27202 -0.0477905 -0.4584
                CHANNELS 3 Zrotation Xrotation Yrotation
                JOINT lPinky2
                {
                  OFFSET 1.82734 -0.647385 -0.700984
                  CHANNELS 3 Zrotation Xrotation Yrotation
                  End Site
                  {
                    OFFSET 1.69225 -0.51767 -0.607171
                  }
                }
              }
            }
          }
        }
      }
    }
  }
  JOINT rButtock
  {
    OFFSET -8.77824 4.35084 1.2192
    CHANNELS 3 Zrotation Xrotation Yrotation
    JOINT rThigh
    {
      OFFSET 0 -1.70687 -2.19456
      CHANNELS 3 Zrotation Xrotation Yrotation
      JOINT rShin
      {
        OFFSET 0 -36.8199 0.73152
        CHANNELS 3 Zrotation Xrotation Yrotation
        JOINT rFoot
        {
          OFFSET 0.73152 -45.1104 -5.12064
          CHANNELS 3 Zrotation Xrotation Yrotation
          End Site
          {
            OFFSET -1.1221 -3.69964 12.103
          }
        }
      }
    }
  }
  JOINT lButtock
  {
    OFFSET 8.77824 4.35084 1.2192
    CHANNELS 3 Zrotation Xrotation Yrotation
    JOINT lThigh
    {
      OFFSET 0 -1.70687 -2.19456
      CHANNELS 3 Zrotation Xrotation Yrotation
      JOINT lShin
      {
        OFFSET 0 -36.8199 0.73152
        CHANNELS 3 Zrotation Xrotation Yrotation
        JOINT lFoot
        {
          OFFSET -0.73152 -45.1104 -5.12064
          CHANNELS 3 Zrotation Xrotation Yrotation
          End Site
          {
            OFFSET 1.1221 -3.69964 12.103
          }
        }
      }
    }
  }
}
MOTION
Frames: 9
Frame Time:	0.06666666
81.0225 83.3688 -20.2158 182.952 38.2678 -180.27 -0.706527 10.899 8.74973 -1.47538 -5.33217 2.333 -7.80728 -5.94049 -1.90993 6.23305 12.5792 0.169346 -0.0 0.0 0.0 -0.0 0.0 0.0 9.57278e-14 1.30304e-13 -1.03895e-12 80.4226 19.0349 1.88009 -13.8266 -6.81445 25.2078 -0.047576 6.19886 0.874665 3.73494e-09 -8.40909e-09 -2.67262e-09 6.44191e-09 -1.45523e-08 -4.64868e-09 3.73496e-09 -8.40906e-09 -2.67263e-09 7.73091 5.47488 0.417314 3.73494e-09 -8.40909e-09 -2.67262e-09 2.90554 0.965183 0.102902 3.73495e-09 -8.40909e-09 -2.67262e-09 10.2786 0.731801 0.0259123 3.73493e-09 -8.40909e-09 -2.67261e-09 2.22167 -0.733487 -0.20892 9.56429e-14 1.30302e-13 -1.03915e-12 -82.3255 22.043 6.08409 13.9385 -6.90562 -25.429 0.0690422 7.47329 -1.05637 2.43433e-09 -2.65091e-09 -1.89687e-09 4.19646e-09 -4.61133e-09 -3.30155e-09 2.43432e-09 -2.65091e-09 -1.89686e-09 -7.73091 5.47488 -0.417314 2.43433e-09 -2.65091e-09 -1.89686e-09 -2.90554 0.965183 -0.102902 2.43432e-09 -2.65092e-09 -1.89687e-09 -10.2786 0.731801 -0.0259123 2.43434e-09 -2.65092e-09 -1.89687e-09 -2.22167 -0.733487 0.20892 -2.03217e-16 0.0 -3.88251e-19 2.23444 4.28278 -2.89907 -0.26292 34.3251 0.466413 -0.835632 -3.82165 -2.17276 2.03217e-16 0.0 3.88251e-19 -2.11784 -25.0061 1.05428 0.0980056 19.8342 0.210731 0.509962 5.99635 1.11946
81.6501 83.4323 -21.6129 183.37 37.1952 -180.517 -0.688138 11.1671 8.26014 -1.53335 -5.2537 2.17995 -7.89144 -5.73062 -1.85256 6.07337 12.4299 0.334159 -0.0 0.0 0.0 -0.0 0.0 0.0 1.33572e-13 1.53462e-13 -1.48204e-12 80.9524 18.2044 1.26221 -13.7533 -6.75709 25.059 -0.0438792 5.96774 0.841787 5.5414e-09 -1.32251e-08 -3.85298e-09 9.55739e-09 -2.28872e-08 -6.70343e-09 5.5414e-09 -1.32251e-08 -3.85299e-09 7.73091 5.47488 0.417314 5.5414e-09 -1.32251e-08 -3.85298e-09 2.90554 0.965183 0.102902 5.54141e-09 -1.32251e-08 -3.85298e-09 10.2786 0.731801 0.0259123 5.54139e-09 -1.32251e-08 -3.85297e-09 2.22167 -0.733487 -0.20892 1.33504e-13 1.53461e-13 -1.48229e-12 -82.2094 21.8092 5.93738 13.6775 -6.69718 -24.9076 0.0699797 7.5262 -1.06393 3.9741e-09 -4.05362e-09 -3.23381e-09 6.85099e-09 -7.05458e-09 -5.62764e-09 3.97409e-09 -4.05362e-09 -3.23379e-09 -7.73091 5.47488 -0.417314 3.9741e-09 -4.05362e-09 -3.23381e-09 -2.90554 0.965183 -0.102902 3.97409e-09 -4.05362e-09 -3.23381e-09 -10.2786 0.731801 -0.0259123 3.9741e-09 -4.05362e-09 -3.23382e-09 -2.22167 -0.733487 0.20892 -2.03217e-16 0.0 -3.88251e-19 1.36103 2.72698 -3.78746 -0.335743 38.3731 0.522441 -0.497547 0.0856909 0.0150722 2.03217e-16 0.0 3.88251e-19 -2.41854 -24.0275 1.96398 0.0968969 20.1814 0.238947 0.60208 5.97737 -1.2154
82.1686 83.5151 -23.1849 182.54 36.6371 -181.51 -1.55213 11.2872 8.21283 -1.49995 -4.94807 2.13844 -7.88491 -5.82985 -1.78397 5.90613 12.4481 0.498801 -0.0 0.0 0.0 -0.0 0.0 0.0 1.25174e-14 8.84751e-15 -1.69672e-13 81.4332 17.6232 0.71837 -13.7255 -6.73503 25.0038 -0.0400234 5.70103 0.803908 6.83718e-11 -7.26672e-10 4.64447e-10 1.17381e-10 -1.25605e-09 8.02629e-10 6.83733e-11 -7.26677e-10 4.64444e-10 7.73091 5.47488 0.417314 6.8372e-11 -7.26674e-10 4.6445e-10 2.90554 0.965183 0.102902 6.83784e-11 -7.26672e-10 4.64448e-10 10.2786 0.731801 0.0259123 6.83693e-11 -7.26673e-10 4.64454e-10 2.22167 -0.733487 -0.20892 1.25273e-14 8.84464e-15 -1.69865e-13 -81.9179 21.854 5.5228 13.4434 -6.51417 -24.4405 0.077197 7.91093 -1.11897 4.97381e-10 -2.12436e-10 -6.15415e-10 8.58309e-10 -3.71051e-10 -1.06788e-09 4.97372e-10 -2.12439e-10 -6.15401e-10 -7.73091 5.47488 -0.417314 4.97381e-10 -2.12441e-10 -6.15411e-10 -2.90554 0.965183 -0.102902 4.97374e-10 -2.12443e-10 -6.15414e-10 -10.2786 0.731801 -0.0259123 4.97389e-10 -2.12441e-10 -6.15423e-10 -2.22167 -0.733487 0.20892 -2.03217e-16 0.0 -3.88251e-19 -0.454257 0.703622 -4.33315 -0.426113 42.5233 0.607866 -0.481159 5.42891 2.25782 2.03217e-16 0.0 3.88251e-19 -3.54857 -22.7937 2.17245 0.0926678 20.2153 0.267249 0.657593 6.06484 -2.4873
82.6026 83.5998 -24.6829 181.482 36.2064 -182.407 -2.64799 11.4138 8.33544 -1.44434 -4.66381 2.13982 -7.87999 -5.94505 -1.71603 5.7652 12.5226 0.666732 -0.0 0.0 0.0 -0.0 0.0 0.0 -1.17662e-13 -1.51869e-13 1.25324e-12 81.8152 17.3836 0.188902 -13.7192 -6.73007 24.9908 -0.035241 5.35056 0.754188 -5.33074e-09 1.17807e-08 4.69716e-09 -9.19398e-09 2.03888e-08 8.16124e-09 -5.33073e-09 1.17806e-08 4.69716e-09 7.73091 5.47488 0.417314 -5.33074e-09 1.17806e-08 4.69716e-09 2.90554 0.965183 0.102902 -5.33073e-09 1.17807e-08 4.69716e-09 10.2786 0.731801 0.0259123 -5.33074e-09 1.17806e-08 4.69716e-09 2.22167 -0.733487 -0.20892 -1.17607e-13 -1.51873e-13 1.25309e-12 -81.577 22.2211 5.05835 13.2904 -6.39577 -24.1369 0.0849316 8.2849 -1.17263 -3.0395e-09 3.69359e-09 2.10584e-09 -5.23814e-09 6.4246e-09 3.66999e-09 -3.03951e-09 3.69359e-09 2.10585e-09 -7.73091 5.47488 -0.417314 -3.03951e-09 3.69358e-09 2.10585e-09 -2.90554 0.965183 -0.102902 -3.03951e-09 3.69358e-09 2.10584e-09 -10.2786 0.731801 -0.0259123 -3.03949e-09 3.69358e-09 2.10584e-09 -2.22167 -0.733487 0.20892 -2.03217e-16 0.0 -3.88251e-19 -2.44725 -1.56018 -4.64837 -0.536645 46.7078 0.722895 -0.836779 10.6078 4.33677 2.03217e-16 0.0 3.88251e-19 -4.90634 -21.4541 2.15062 0.0874978 20.1268 0.292153 0.697515 6.05175 -3.28975
83.0166 83.6792 -26.1682 180.351 35.7165 -183.519 -3.66082 11.6722 8.48422 -1.40689 -4.678 2.1437 -7.97934 -5.80505 -1.6647 5.77073 12.645 0.833948 -0.0 0.0 0.0 -0.0 0.0 0.0 -1.15175e-13 -1.89344e-13 1.25948e-12 82.0464 17.8019 -0.379301 -13.702 -6.71627 24.9568 -0.0280022 4.77211 0.672248 -2.99484e-09 6.58189e-09 3.00817e-09 -5.16021e-09 1.13839e-08 5.22133e-09 -2.99484e-09 6.58189e-09 3.00817e-09 7.73091 5.47488 0.417314 -2.99485e-09 6.58189e-09 3.00817e-09 2.90554 0.965183 0.102902 -2.99484e-09 6.58189e-09 3.00817e-09 10.2786 0.731801 0.0259123 -2.99485e-09 6.58189e-09 3.00817e-09 2.22167 -0.733487 -0.20892 -1.15234e-13 -1.89341e-13 1.25923e-12 -81.2656 23.1371 4.76916 13.2991 -6.40166 -24.1559 0.0846247 8.26683 -1.17005 -1.62874e-09 2.45745e-09 1.14795e-09 -2.80562e-09 4.268e-09 1.99923e-09 -1.62875e-09 2.45744e-09 1.14797e-09 -7.73091 5.47488 -0.417314 -1.62875e-09 2.45744e-09 1.14796e-09 -2.90554 0.965183 -0.102902 -1.62875e-09 2.45744e-09 1.14796e-09 -10.2786 0.731801 -0.0259123 -1.62874e-09 2.45745e-09 1.14795e-09 -2.22167 -0.733487 0.20892 -2.03217e-16 0.0 -3.88251e-19 -4.07075 -3.94557 -4.64113 -0.670242 50.906 0.879189 -1.33453 14.4456 6.05765 2.03217e-16 0.0 3.88251e-19 -6.19334 -20.0536 2.28355 0.0826445 19.9178 0.315208 0.736733 5.92409 -3.96622
83.4256 83.7357 -27.4955 179.73 35.1568 -184.216 -4.54767 11.9931 8.55985 -1.33463 -4.77866 2.1302 -8.03666 -5.65314 -1.58893 5.66623 12.839 1.05863 -0.0 0.0 0.0 -0.0 0.0 0.0 -7.30395e-14 -1.78911e-13 8.30373e-13 82.1455 18.3554 -0.846477 -13.6446 -6.67112 24.8415 -0.0247916 4.49018 0.632362 5.8937e-10 -1.53897e-09 2.91364e-10 1.02581e-09 -2.6766e-09 4.95359e-10 5.89369e-10 -1.53897e-09 2.91367e-10 7.73091 5.47488 0.417314 5.89367e-10 -1.53896e-09 2.91364e-10 2.90554 0.965183 0.102902 5.89372e-10 -1.53897e-09 2.91369e-10 10.2786 0.731801 0.0259123 5.89362e-10 -1.53897e-09 2.91371e-10 2.22167 -0.733487 -0.20892 -7.32211e-14 -1.78902e-13 8.30025e-13 -81.0242 24.1436 4.56861 13.4415 -6.51254 -24.4371 0.0837928 8.22965 -1.1647 6.02197e-10 2.16659e-10 -4.7139e-10 1.04009e-09 3.6474e-10 -8.22498e-10 6.02191e-10 2.1666e-10 -4.71374e-10 -7.73091 5.47488 -0.417314 6.02197e-10 2.16657e-10 -4.71387e-10 -2.90554 0.965183 -0.102902 6.0219e-10 2.16662e-10 -4.71384e-10 -10.2786 0.731801 -0.0259123 6.02201e-10 2.16664e-10 -4.7139e-10 -2.22167 -0.733487 0.20892 -2.03217e-16 0.0 -3.88251e-19 -5.45082 -6.2851 -4.62881 -0.835266 54.8787 1.06222 -1.62697 16.3497 6.84144 2.03217e-16 0.0 3.88251e-19 -7.4592 -18.6638 2.16387 0.0780587 19.7518 0.329724 0.753343 5.64235 -4.39787
83.9013 83.7637 -28.7664 179.599 34.4218 -184.609 -5.08274 12.3849 8.35826 -1.15882 -4.8279 2.05306 -7.87813 -5.73301 -1.43216 5.08524 13.1922 1.44077 -0.0 0.0 0.0 -0.0 0.0 0.0 -3.65824e-14 -1.51176e-13 4.19818e-13 82.024 18.5761 -1.01907 -13.4793 -6.54223 24.5114 -0.0330114 5.23146 0.737244 6.70618e-10 -2.01952e-09 1.58853e-10 1.16418e-09 -3.50313e-09 2.66419e-10 6.70617e-10 -2.01952e-09 1.58849e-10 7.73091 5.47488 0.417314 6.70615e-10 -2.01952e-09 1.58852e-10 2.90554 0.965183 0.102902 6.70621e-10 -2.01952e-09 1.58855e-10 10.2786 0.731801 0.0259123 6.70612e-10 -2.01952e-09 1.58858e-10 2.22167 -0.733487 -0.20892 -3.67498e-14 -1.51176e-13 4.19535e-13 -80.9755 24.7997 4.46393 13.7371 -6.74501 -25.0253 0.0913443 8.59281 -1.21686 7.60403e-10 -2.49706e-10 -7.63163e-10 1.31049e-09 -4.43429e-10 -1.32726e-09 7.60395e-10 -2.49708e-10 -7.6315e-10 -7.73091 5.47488 -0.417314 7.60403e-10 -2.49711e-10 -7.63161e-10 -2.90554 0.965183 -0.102902 7.60392e-10 -2.49708e-10 -7.63161e-10 -10.2786 0.731801 -0.0259123 7.60405e-10 -2.49707e-10 -7.63166e-10 -2.22167 -0.733487 0.20892 -2.03217e-16 0.0 -3.88251e-19 -6.54624 -8.28867 -4.97982 -1.02498 58.4052 1.24098 -1.1968 14.4722 5.62053 2.03217e-16 0.0 3.88251e-19 -8.6221 -17.3774 1.31982 0.0741461 19.8666 0.32831 0.723513 5.11281 -4.48477
84.2876 83.8116 -30.2131 178.852 33.3065 -185.559 -5.48326 12.7424 8.0463 -0.967322 -4.88053 1.95104 -7.68599 -5.77222 -1.25647 4.47052 13.5039 1.85267 -0.0 0.0 0.0 -0.0 0.0 0.0 -7.09087e-15 -1.00979e-13 8.27938e-14 81.868 18.6204 -1.08583 -13.2838 -6.39079 24.1239 -0.0480751 6.24518 0.88123 -2.9619e-10 9.00188e-11 6.19035e-10 -5.07616e-10 1.55586e-10 1.07144e-09 -2.9619e-10 9.00192e-11 6.19022e-10 7.73091 5.47488 0.417314 -2.96191e-10 9.00182e-11 6.19031e-10 2.90554 0.965183 0.102902 -2.96185e-10 9.00172e-11 6.19031e-10 10.2786 0.731801 0.0259123 -2.96192e-10 9.0018e-11 6.19035e-10 2.22167 -0.733487 -0.20892 -7.22204e-15 -1.00987e-13 8.2595e-14 -80.9875 25.2764 4.40514 14.1056 -7.03997 -25.7667 0.0967127 8.83546 -1.25178 1.50059e-10 -7.32768e-11 -4.23421e-10 2.56418e-10 -1.29429e-10 -7.32661e-10 1.50047e-10 -7.32828e-11 -4.23411e-10 -7.73091 5.47488 -0.417314 1.50057e-10 -7.32857e-11 -4.23421e-10 -2.90554 0.965183 -0.102902 1.50044e-10 -7.32861e-11 -4.23422e-10 -10.2786 0.731801 -0.0259123 1.5006e-10 -7.32848e-11 -4.23427e-10 -2.22167 -0.733487 0.20892 -2.03217e-16 0.0 -3.88251e-19 -7.50671 -10.189 -5.44958 -1.22426 61.4104 1.42333 -0.701006 11.4033 3.64411 2.03217e-16 0.0 3.88251e-19 -9.65955 -16.1644 0.364194 0.0699662 20.0404 0.314879 0.684199 4.48113 -4.51619
84.6513 83.8533 -31.4768 178.559 32.0837 -185.945 -5.94646 12.9517 7.71343 -0.840517 -4.94764 1.8427 -7.61157 -5.50262 -1.11251 4.2338 13.5266 2.17527 -0.0 0.0 0.0 -0.0 0.0 0.0 -4.44023e-15 -4.69764e-17 7.40349e-14 81.8609 18.5045 -1.153 -13.1059 -6.25531 23.7716 -0.0602301 6.98917 0.9872 -1.48185e-09 3.84551e-09 6.44112e-10 -2.55962e-09 6.66056e-09 1.12738e-09 -1.48185e-09 3.84551e-09 6.44094e-10 7.73091 5.47488 0.417314 -1.48185e-09 3.84551e-09 6.4411e-10 2.90554 0.965183 0.102902 -1.48184e-09 3.84551e-09 6.44105e-10 10.2786 0.731801 0.0259123 -1.48185e-09 3.84552e-09 6.44106e-10 2.22167 -0.733487 -0.20892 -4.61405e-15 -5.33699e-17 7.38206e-14 -80.933 25.5569 4.32091 14.4628 -7.3336 -26.4911 0.0896649 8.49955 -1.20349 -1.11153e-09 8.03172e-10 8.88308e-10 -1.91601e-09 1.40612e-09 1.54767e-09 -1.11155e-09 8.03164e-10 8.88314e-10 -7.73091 5.47488 -0.417314 -1.11154e-09 8.0316e-10 8.88302e-10 -2.90554 0.965183 -0.102902 -1.11154e-09 8.03162e-10 8.88308e-10 -10.2786 0.731801 -0.0259123 -1.11153e-09 8.03165e-10 8.88301e-10 -2.22167 -0.733487 0.20892 -2.03217e-16 0.0 -3.88251e-19 -8.52463 -12.1552 -5.99165 -1.41212 63.7384 1.60297 -0.470541 9.38399 1.70406 2.03217e-16 0.0 3.88251e-19 -10.6092 -15.0131 -0.185732 0.0649286 20.058 0.291626 0.66094 3.88599 -4.78828
